Coordinates
version=1
nRows=20
nColumns=34
inDegrees=yes

Units are S.I. units (second, meters, Newtons, ...)
If the header above contains a line with 'inDegrees', this indicates whether rotational values are in degrees (yes) or radians (no).

endheader
time	pelvis_tilt	pelvis_list	pelvis_rotation	pelvis_tx	pelvis_ty	pelvis_tz	hip_flexion_r	hip_adduction_r	hip_rotation_r	knee_angle_r	ankle_angle_r	subtalar_angle_r	mtp_angle_r	hip_flexion_l	hip_adduction_l	hip_rotation_l	knee_angle_l	ankle_angle_l	subtalar_angle_l	mtp_angle_l	lumbar_extension	lumbar_bending	lumbar_rotation	arm_flex_r	arm_add_r	arm_rot_r	elbow_flex_r	pro_sup_r	arm_flex_l	arm_add_l	arm_rot_l	elbow_flex_l	pro_sup_l
      1.28333330	     -1.51196479	      1.53791934	     -0.58392190	      1.80512290	      0.90114395	     -0.08521206	     -2.04617646	     -3.71280058	      5.48697482	      0.00000000	      4.43601178	    -19.41735861	      0.00000000	     -2.89868854	     -3.05425000	     -0.77618529	      0.01949227	      4.25923023	     -5.81878242	      0.00000000	     -5.03459011	     -0.00310722	      0.39706815	      8.04924346	     -9.02054195	     35.14581015	     88.89562447	     86.75351304	      5.38104699	     -8.75063125	     30.25112100	     83.17689074	     89.61503917
      1.30000000	     -1.51112732	      1.53896008	     -0.58440082	      1.80517036	      0.90109514	     -0.08530974	     -2.04668803	     -3.71241336	      5.48738520	      0.00000000	      4.43621958	    -19.41719090	      0.00000000	     -2.89853446	     -3.05321481	     -0.77677662	      0.01932985	      4.25875098	     -5.81882541	      0.00000000	     -5.03455044	     -0.00357016	      0.39655727	      8.04907450	     -9.02054363	     35.14579789	     88.89564837	     86.75331821	      5.38131466	     -8.75051025	     30.25134473	     83.17666538	     89.61491295
      1.31666670	     -1.51028000	      1.53616867	     -0.58430674	      1.80521120	      0.90085775	     -0.08530459	     -2.04834912	     -3.71424732	      5.48808682	      0.00000000	      4.43634766	    -19.41680474	      0.00000000	     -2.89811362	     -3.05049372	     -0.77751398	      0.01891079	      4.25809762	     -5.81881667	      0.00000000	     -5.03445505	     -0.00398417	      0.39580974	      8.04885622	     -9.02066033	     35.14574826	     88.89567370	     86.75308533	      5.38176564	     -8.75034888	     30.25158730	     83.17639475	     89.61476247
      1.33333330	     -1.51139714	      1.53233432	     -0.58389909	      1.80523084	      0.90069311	     -0.08526499	     -2.05263576	     -3.71857448	      5.48962284	      0.00000000	      4.43640452	    -19.41592499	      0.00000000	     -2.89788633	     -3.04734520	     -0.77886334	      0.01810133	      4.25698916	     -5.81885002	      0.00000000	     -5.03379591	     -0.00446505	      0.39428295	      8.04848459	     -9.02097061	     35.14560642	     88.89583262	     86.75268330	      5.38273114	     -8.74994200	     30.25202003	     83.17605188	     89.61450642
      1.35000000	     -1.51352105	      1.52969309	     -0.58340385	      1.80516899	      0.90069257	     -0.08520492	     -2.05530043	     -3.72129972	      5.49044198	      0.00000000	      4.43637503	    -19.41544316	      0.00000000	     -2.89850678	     -3.04575807	     -0.77951909	      0.01794564	      4.25648653	     -5.81887616	      0.00000000	     -5.03322286	     -0.00460635	      0.39348351	      8.04827418	     -9.02115314	     35.14553177	     88.89595516	     86.75249962	      5.38316269	     -8.74965908	     30.25226749	     83.17595040	     89.61439286
      1.36666670	     -1.51420329	      1.52920675	     -0.58292185	      1.80512963	      0.90101793	     -0.08521961	     -2.05874220	     -3.72559898	      5.49246421	      0.00000000	      4.43627761	    -19.41429662	      0.00000000	     -2.89805408	     -3.04525456	     -0.78092501	      0.01659837	      4.25545303	     -5.81897148	      0.00000000	     -5.03154801	     -0.00485917	      0.39169370	      8.04784428	     -9.02148921	     35.14537125	     88.89632541	     86.75211250	      5.38408818	     -8.74890414	     30.25287697	     83.17586066	     89.61415930
      1.38333330	     -1.51290221	      1.52965794	     -0.58255922	      1.80512858	      0.90162463	     -0.08522802	     -2.06052175	     -3.73008752	      5.49459767	      0.00000000	      4.43618215	    -19.41307824	      0.00000000	     -2.89693544	     -3.04532396	     -0.78246158	      0.01480051	      4.25429863	     -5.81908265	      0.00000000	     -5.02964236	     -0.00495238	      0.38967761	      8.04733503	     -9.02186431	     35.14521834	     88.89671221	     86.75170249	      5.38493450	     -8.74786903	     30.25368962	     83.17578664	     89.61392145
      1.40000000	     -1.51171159	      1.53031122	     -0.58269934	      1.80514760	      0.90219922	     -0.08519873	     -2.06082589	     -3.73253752	      5.49561235	      0.00000000	      4.43614487	    -19.41247150	      0.00000000	     -2.89585656	     -3.04537363	     -0.78343607	      0.01351999	      4.25360206	     -5.81919572	      0.00000000	     -5.02857873	     -0.00482560	      0.38841454	      8.04697934	     -9.02210487	     35.14515694	     88.89688649	     86.75146226	      5.38532118	     -8.74706108	     30.25430824	     83.17574757	     89.61379052
      1.41666670	     -1.43714882	      1.62210023	     -0.63369525	      1.80526291	      0.90245393	     -0.08529437	     -2.14520903	     -3.87431930	      5.58248504	      0.00000000	      4.41791008	    -19.33139031	      0.00000000	     -2.98025714	     -2.90594845	     -0.94296420	      0.00000000	      4.12155855	     -5.82345879	      0.00000000	     -4.99939784	     -0.00440487	      0.23452300	      8.00011611	     -9.04860164	     35.14332349	     88.88934244	     86.71531421	      5.40623521	     -8.63773167	     30.36005997	     83.13640570	     89.59477442
      1.43333330	     -1.42607248	      1.63167388	     -0.63097686	      1.80505656	      0.90252742	     -0.08521022	     -2.13515333	     -3.86294943	      5.58108399	      0.00000000	      4.41843020	    -19.33066986	      0.00000000	     -2.98218369	     -2.90539023	     -0.94687851	      0.00000000	      4.11843895	     -5.82337568	      0.00000000	     -5.00318421	     -0.00876689	      0.23819040	      8.00201845	     -9.04713414	     35.14374350	     88.88880513	     86.71391759	      5.40245701	     -8.63911887	     30.36300964	     83.13275110	     89.59395606
      1.45000000	     -1.42715288	      1.63099144	     -0.63144542	      1.80499535	      0.90261895	     -0.08513466	     -2.13555950	     -3.86253913	      5.58051580	      0.00000000	      4.41845815	    -19.33069918	      0.00000000	     -2.98249245	     -2.90482118	     -0.94742287	      0.00000000	      4.11796460	     -5.82334840	      0.00000000	     -5.00388723	     -0.00929027	      0.23853068	      8.00225429	     -9.04699395	     35.14377535	     88.88867629	     86.71372535	      5.40195926	     -8.63922680	     30.36348458	     83.13223338	     89.59385029
      1.46666670	     -1.41351408	      1.61550293	     -0.74029914	      1.80471166	      0.90261908	     -0.08470069	     -2.10040200	     -3.81990092	      5.49768579	      0.00000000	      4.41097981	    -19.33280159	      0.00000000	     -3.00492633	     -2.93659953	     -1.01454802	      0.00000000	      4.05106567	     -5.81379055	      0.00000000	     -5.11439067	     -0.08186102	      0.27561652	      8.03402732	     -9.02649021	     35.14493938	     88.86654872	     86.69052860	      5.35273833	     -8.66766089	     30.41734649	     83.06313503	     89.58127483
      1.48333330	     -1.41346918	      1.61745546	     -0.73948814	      1.80464348	      0.90243571	     -0.08468958	     -2.10087363	     -3.81954293	      5.49751800	      0.00000000	      4.41063834	    -19.33240635	      0.00000000	     -3.00593594	     -2.93728747	     -1.01545067	      0.00000000	      4.05053523	     -5.81378552	      0.00000000	     -5.11471906	     -0.08146502	      0.27594660	      8.03430027	     -9.02641866	     35.14491969	     88.86630437	     86.69029631	      5.35274500	     -8.66782493	     30.41773481	     83.06270839	     89.58114929
      1.50000000	     -1.41140873	      1.62106303	     -0.73954111	      1.80458697	      0.90210515	     -0.08475845	     -2.10038031	     -3.81900430	      5.49719377	      0.00000000	      4.41023228	    -19.33201864	      0.00000000	     -3.00659830	     -2.93958708	     -1.01618600	      0.00000000	      4.04994173	     -5.81364046	      0.00000000	     -5.11520007	     -0.08114454	      0.27614939	      8.03448131	     -9.02638720	     35.14487259	     88.86598827	     86.69007120	      5.35277138	     -8.66814606	     30.41810307	     83.06220858	     89.58103107
      1.51666670	     -1.40645083	      1.62272128	     -0.74034087	      1.80454815	      0.90168757	     -0.08480496	     -2.09832918	     -3.82188507	      5.49635480	      0.00000000	      4.40955104	    -19.33151258	      0.00000000	     -3.00697330	     -2.94402206	     -1.01702892	      0.00000000	      4.04893218	     -5.81314923	      0.00000000	     -5.11621306	     -0.08059825	      0.27624898	      8.03467922	     -9.02635227	     35.14476321	     88.86538823	     86.68969272	      5.35297177	     -8.66883743	     30.41870400	     83.06130779	     89.58083661
      1.53333330	     -1.36815949	      1.60357041	     -0.85577071	      1.80448527	      0.90154311	     -0.08461932	     -2.08555099	     -3.81726748	      5.41691075	      0.00000000	      4.35690740	    -19.30454472	      0.00000000	     -3.06285200	     -2.96355410	     -1.05644971	      0.00000000	      3.98108711	     -5.76126572	      0.00000000	     -5.21467226	     -0.02897227	      0.27631406	      8.05361292	     -9.01526295	     35.13634524	     88.81750237	     86.65958536	      5.39058359	     -8.72493704	     30.46275819	     82.99175891	     89.56539580
      1.55000000	     -1.35916805	      1.59868130	     -0.84508142	      1.80451191	      0.90164689	     -0.08468348	     -2.08696832	     -3.83171484	      5.41670988	      0.00000000	      4.35413413	    -19.30177537	      0.00000000	     -3.06160292	     -2.97846640	     -1.06110499	      0.00000000	      3.98043411	     -5.75998651	      0.00000000	     -5.21723140	     -0.02746496	      0.28019367	      8.05623645	     -9.01233065	     35.13662580	     88.81532400	     86.65772323	      5.39186042	     -8.72685370	     30.46565736	     82.98841887	     89.56441355
      1.56666670	     -1.35681257	      1.59940149	     -0.84460917	      1.80459788	      0.90183790	     -0.08482102	     -2.08592557	     -3.83214581	      5.41654542	      0.00000000	      4.35378572	    -19.30150720	      0.00000000	     -3.06112481	     -2.98078431	     -1.06145746	      0.00000000	      3.98045159	     -5.75962699	      0.00000000	     -5.21778929	     -0.02727340	      0.28064693	      8.05648748	     -9.01173333	     35.13672834	     88.81495478	     86.65743445	      5.39224495	     -8.72718414	     30.46607322	     82.98792250	     89.56425898
      1.58333330	     -1.35360518	      1.60061534	     -0.84455426	      1.80469969	      0.90184722	     -0.08507144	     -2.08442725	     -3.83262156	      5.41655192	      0.00000000	      4.35342948	    -19.30118974	      0.00000000	     -3.06078762	     -2.98390321	     -1.06149964	      0.00000000	      3.98049733	     -5.75912815	      0.00000000	     -5.21849088	     -0.02719504	      0.28108763	      8.05663513	     -9.01109931	     35.13684656	     88.81456428	     86.65717378	      5.39258477	     -8.72754525	     30.46642230	     82.98744129	     89.56411721
      1.60000000	     -1.35091184	      1.58423438	     -0.83589863	      1.80487064	      0.90167408	     -0.08537294	     -2.08564565	     -3.84009456	      5.41917663	      0.00000000	      4.34940273	    -19.29666795	      0.00000000	     -3.06612365	     -2.98679972	     -1.05896832	      0.00000000	      3.98113653	     -5.75342674	      0.00000000	     -5.22448677	     -0.02281212	      0.28329994	      8.05772630	     -9.00827972	     35.13694982	     88.81107533	     86.65495118	      5.39460669	     -8.72796195	     30.46996956	     82.98361900	     89.56295586
